<?xml version="1.0" encoding="UTF-8" standalone="no"?>
<!DOCTYPE svg PUBLIC "-//W3C//DTD SVG 1.1//EN"
 "http://www.w3.org/Graphics/SVG/1.1/DTD/svg11.dtd">
<!-- Generated by graphviz version 11.0.0 (20240428.1522)
 -->
<!-- Pages: 1 -->
<svg width="105pt" height="188pt"
 viewBox="0.00 0.00 105.47 188.00" xmlns="http://www.w3.org/2000/svg" xmlns:xlink="http://www.w3.org/1999/xlink">
<g id="graph0" class="graph" transform="scale(1 1) rotate(0) translate(4 184)">
<polygon fill="white" stroke="none" points="-4,4 -4,-184 101.47,-184 101.47,4 -4,4"/>
<!-- in -->
<g id="node1" class="node">
<title>in</title>
<polygon fill="none" stroke="black" points="64.5,-180 32.97,-180 21.74,-144 75.74,-144 64.5,-180"/>
<text text-anchor="middle" x="48.74" y="-156.95" font-family="Times,serif" font-size="14.00">in</text>
</g>
<!-- remap -->
<g id="node2" class="node">
<title>remap</title>
<polygon fill="none" stroke="black" points="48.74,-108 0,-90 48.74,-72 97.47,-90 48.74,-108"/>
<text text-anchor="middle" x="48.74" y="-84.95" font-family="Times,serif" font-size="14.00">remap</text>
</g>
<!-- in&#45;&gt;remap -->
<g id="edge1" class="edge">
<title>in&#45;&gt;remap</title>
<path fill="none" stroke="black" d="M48.74,-143.7C48.74,-136.41 48.74,-127.73 48.74,-119.54"/>
<polygon fill="black" stroke="black" points="52.24,-119.62 48.74,-109.62 45.24,-119.62 52.24,-119.62"/>
</g>
<!-- out -->
<g id="node3" class="node">
<title>out</title>
<polygon fill="none" stroke="black" points="30,0 67.48,0 80.82,-36 16.65,-36 30,0"/>
<text text-anchor="middle" x="48.74" y="-12.95" font-family="Times,serif" font-size="14.00">out</text>
</g>
<!-- remap&#45;&gt;out -->
<g id="edge2" class="edge">
<title>remap&#45;&gt;out</title>
<path fill="none" stroke="black" d="M48.74,-71.7C48.74,-64.41 48.74,-55.73 48.74,-47.54"/>
<polygon fill="black" stroke="black" points="52.24,-47.62 48.74,-37.62 45.24,-47.62 52.24,-47.62"/>
</g>
</g>
</svg>
