<?xml version="1.0" encoding="UTF-8" standalone="no"?>
<!DOCTYPE svg PUBLIC "-//W3C//DTD SVG 1.1//EN"
 "http://www.w3.org/Graphics/SVG/1.1/DTD/svg11.dtd">
<!-- Generated by graphviz version 11.0.0 (20240428.1522)
 -->
<!-- Pages: 1 -->
<svg width="207pt" height="188pt"
 viewBox="0.00 0.00 206.81 188.00" xmlns="http://www.w3.org/2000/svg" xmlns:xlink="http://www.w3.org/1999/xlink">
<g id="graph0" class="graph" transform="scale(1 1) rotate(0) translate(4 184)">
<polygon fill="white" stroke="none" points="-4,4 -4,-184 202.81,-184 202.81,4 -4,4"/>
<!-- generate_syslog -->
<g id="node1" class="node">
<title>generate_syslog</title>
<polygon fill="none" stroke="black" points="157.46,-180 41.35,-180 0,-144 198.81,-144 157.46,-180"/>
<text text-anchor="middle" x="99.4" y="-156.95" font-family="Times,serif" font-size="14.00">generate_syslog</text>
</g>
<!-- remap_syslog -->
<g id="node2" class="node">
<title>remap_syslog</title>
<polygon fill="none" stroke="black" points="99.4,-108 10.86,-90 99.4,-72 187.95,-90 99.4,-108"/>
<text text-anchor="middle" x="99.4" y="-84.95" font-family="Times,serif" font-size="14.00">remap_syslog</text>
</g>
<!-- generate_syslog&#45;&gt;remap_syslog -->
<g id="edge1" class="edge">
<title>generate_syslog&#45;&gt;remap_syslog</title>
<path fill="none" stroke="black" d="M99.4,-143.7C99.4,-136.41 99.4,-127.73 99.4,-119.54"/>
<polygon fill="black" stroke="black" points="102.9,-119.62 99.4,-109.62 95.9,-119.62 102.9,-119.62"/>
</g>
<!-- emit_syslog -->
<g id="node3" class="node">
<title>emit_syslog</title>
<polygon fill="none" stroke="black" points="53.19,0 145.62,0 178.54,-36 20.27,-36 53.19,0"/>
<text text-anchor="middle" x="99.4" y="-12.95" font-family="Times,serif" font-size="14.00">emit_syslog</text>
</g>
<!-- remap_syslog&#45;&gt;emit_syslog -->
<g id="edge2" class="edge">
<title>remap_syslog&#45;&gt;emit_syslog</title>
<path fill="none" stroke="black" d="M99.4,-71.7C99.4,-64.41 99.4,-55.73 99.4,-47.54"/>
<polygon fill="black" stroke="black" points="102.9,-47.62 99.4,-37.62 95.9,-47.62 102.9,-47.62"/>
</g>
</g>
</svg>
