<?xml version="1.0" encoding="UTF-8" standalone="no"?>
<!DOCTYPE svg PUBLIC "-//W3C//DTD SVG 1.1//EN"
 "http://www.w3.org/Graphics/SVG/1.1/DTD/svg11.dtd">
<!-- Generated by graphviz version 11.0.0 (20240428.1522)
 -->
<!-- Pages: 1 -->
<svg width="105pt" height="277pt"
 viewBox="0.00 0.00 105.47 276.50" xmlns="http://www.w3.org/2000/svg" xmlns:xlink="http://www.w3.org/1999/xlink">
<g id="graph0" class="graph" transform="scale(1 1) rotate(0) translate(4 272.5)">
<polygon fill="white" stroke="none" points="-4,4 -4,-272.5 101.47,-272.5 101.47,4 -4,4"/>
<!-- in -->
<g id="node1" class="node">
<title>in</title>
<polygon fill="none" stroke="black" points="64.5,-268.5 32.97,-268.5 21.74,-232.5 75.74,-232.5 64.5,-268.5"/>
<text text-anchor="middle" x="48.74" y="-245.45" font-family="Times,serif" font-size="14.00">in</text>
</g>
<!-- remap -->
<g id="node2" class="node">
<title>remap</title>
<polygon fill="none" stroke="black" points="48.74,-196.5 0,-178.5 48.74,-160.5 97.47,-178.5 48.74,-196.5"/>
<text text-anchor="middle" x="48.74" y="-173.45" font-family="Times,serif" font-size="14.00">remap</text>
</g>
<!-- in&#45;&gt;remap -->
<g id="edge1" class="edge">
<title>in&#45;&gt;remap</title>
<path fill="none" stroke="black" d="M48.74,-232.2C48.74,-224.91 48.74,-216.23 48.74,-208.04"/>
<polygon fill="black" stroke="black" points="52.24,-208.12 48.74,-198.12 45.24,-208.12 52.24,-208.12"/>
</g>
<!-- router -->
<g id="node3" class="node">
<title>router</title>
<polygon fill="none" stroke="black" points="48.74,-124.5 2.17,-106.5 48.74,-88.5 95.3,-106.5 48.74,-124.5"/>
<text text-anchor="middle" x="48.74" y="-101.45" font-family="Times,serif" font-size="14.00">router</text>
</g>
<!-- remap&#45;&gt;router -->
<g id="edge2" class="edge">
<title>remap&#45;&gt;router</title>
<path fill="none" stroke="black" d="M48.74,-160.2C48.74,-152.91 48.74,-144.23 48.74,-136.04"/>
<polygon fill="black" stroke="black" points="52.24,-136.12 48.74,-126.12 45.24,-136.12 52.24,-136.12"/>
</g>
<!-- out -->
<g id="node4" class="node">
<title>out</title>
<polygon fill="none" stroke="black" points="30,0 67.48,0 80.82,-36 16.65,-36 30,0"/>
<text text-anchor="middle" x="48.74" y="-12.95" font-family="Times,serif" font-size="14.00">out</text>
</g>
<!-- router&#45;&gt;out -->
<g id="edge3" class="edge">
<title>router&#45;&gt;out</title>
<path fill="none" stroke="black" d="M48.74,-88C48.74,-76.51 48.74,-61.2 48.74,-47.93"/>
<polygon fill="black" stroke="black" points="52.24,-47.99 48.74,-37.99 45.24,-47.99 52.24,-47.99"/>
<text text-anchor="middle" x="64.49" y="-57.2" font-family="Times,serif" font-size="14.00">errors</text>
</g>
</g>
</svg>
